<svg width="69" height="76" viewBox="0 0 69 76" fill="none" xmlns="http://www.w3.org/2000/svg">
<path fill-rule="evenodd" clip-rule="evenodd" d="M13.4205 71.2165C18.7111 71.2149 22.9987 66.5259 22.9971 60.7434C22.9955 54.961 18.7052 50.2746 13.4146 50.2762C8.12403 50.2778 3.83637 54.9668 3.83798 60.7492C3.83959 66.5317 8.12985 71.2181 13.4205 71.2165ZM13.4216 75.4046C20.8285 75.4023 26.8312 68.8378 26.8289 60.7423C26.8267 52.6468 20.8204 46.0859 13.4135 46.0881C6.00657 46.0904 0.00389975 52.6549 0.00615047 60.7504C0.00840118 68.8459 6.01472 75.4068 13.4216 75.4046Z" fill="#07AE9A"/>
<path d="M16.7694 60.7446C16.7699 62.7685 15.2692 64.4096 13.4176 64.4103C11.5659 64.4109 10.0645 62.7707 10.064 60.7469C10.0635 58.723 11.5642 57.0819 13.4158 57.0812C15.2675 57.0806 16.7689 58.7208 16.7694 60.7446Z" fill="#07AE9A"/>
<path fill-rule="evenodd" clip-rule="evenodd" d="M55.5831 71.2142C60.8737 71.2124 65.1615 66.5232 65.1601 60.7408C65.1587 54.9583 60.8687 50.2721 55.578 50.2739C50.2874 50.2757 45.9996 54.9648 46.001 60.7473C46.0024 66.5297 50.2925 71.216 55.5831 71.2142ZM55.5841 75.4023C62.991 75.3997 68.9939 68.835 68.992 60.7395C68.99 52.644 62.984 46.0833 55.577 46.0858C48.1701 46.0883 42.1672 52.653 42.1692 60.7486C42.1711 68.8441 48.1772 75.4048 55.5841 75.4023Z" fill="#07AE9A"/>
<path d="M58.9331 60.7428C58.9336 62.7666 57.4329 64.4078 55.5813 64.4084C53.7296 64.409 52.2282 62.7689 52.2277 60.745C52.2272 58.7212 53.7279 57.08 55.5795 57.0794C57.4312 57.0788 58.9326 58.7189 58.9331 60.7428Z" fill="#07AE9A"/>
<path fill-rule="evenodd" clip-rule="evenodd" d="M55.5855 25.133C60.8761 25.1312 65.164 20.442 65.1626 14.6595C65.1612 8.87708 60.8711 4.19084 55.5805 4.19265C50.2899 4.19445 46.0021 8.88362 46.0035 14.6661C46.0048 20.4485 50.2949 25.1348 55.5855 25.133ZM55.5866 29.321C62.9935 29.3185 68.9964 22.7538 68.9944 14.6582C68.9925 6.56273 62.9864 0.00205521 55.5795 0.00458201C48.1726 0.00710881 42.1697 6.57188 42.1716 14.6674C42.1736 22.7629 48.1796 29.3236 55.5866 29.321Z" fill="#07AE9A"/>
<path d="M58.9356 14.6616C58.9361 16.6854 57.4354 18.3266 55.5837 18.3272C53.7321 18.3278 52.2306 16.6877 52.2301 14.6638C52.2296 12.64 53.7303 10.9988 55.582 10.9982C57.4336 10.9975 58.9351 12.6377 58.9356 14.6616Z" fill="#07AE9A"/>
<path fill-rule="evenodd" clip-rule="evenodd" d="M13.4229 25.1355C18.7135 25.1339 23.0012 20.4448 22.9996 14.6624C22.9981 8.8799 18.7079 4.19354 13.4173 4.1952C8.12667 4.19686 3.83896 8.8859 3.84051 14.6684C3.84206 20.4508 8.13228 25.1372 13.4229 25.1355ZM13.424 29.3236C20.8309 29.3213 26.8336 22.7567 26.8315 14.6612C26.8293 6.56565 20.8231 0.00481146 13.4162 0.00713328C6.00925 0.00945508 0.0065174 6.57406 0.00868433 14.6696C0.0108513 22.7651 6.0171 29.3259 13.424 29.3236Z" fill="#07AE9A"/>
<path d="M16.772 14.6635C16.7725 16.6873 15.2718 18.3285 13.4202 18.3291C11.5685 18.3297 10.067 16.6896 10.0666 14.6657C10.0661 12.6419 11.5667 11.0007 13.4184 11.0001C15.2701 10.9995 16.7715 12.6396 16.772 14.6635Z" fill="#07AE9A"/>
<path d="M13.4305 60.7456L24.3837 37.2375L14.2624 14.6768L34.4969 25.9521L54.726 14.663L44.6156 37.2307L55.5801 60.7313L34.5024 48.5163L13.4305 60.7456Z" fill="#07AE9A"/>
</svg>
