<svg width="69" height="76" viewBox="0 0 69 76" fill="none" xmlns="http://www.w3.org/2000/svg">
<path fill-rule="evenodd" clip-rule="evenodd" d="M13.42 71.2166C18.7108 71.215 22.9988 66.526 22.9975 60.7435C22.9961 54.961 18.7059 50.2745 13.4151 50.2761C8.12428 50.2777 3.83626 54.9667 3.83762 60.7491C3.83899 66.5316 8.12922 71.2181 13.42 71.2166ZM13.421 75.4047C20.8282 75.4025 26.8314 68.838 26.8294 60.7424C26.8275 52.6468 20.8213 46.0858 13.4141 46.088C6.00691 46.0902 0.00374416 52.6547 0.00565235 60.7503C0.00756055 68.8459 6.01382 75.4068 13.421 75.4047Z" fill="#07AE9A"/>
<path d="M16.7694 60.7446C16.7698 62.7685 15.2691 64.4096 13.4174 64.4102C11.5657 64.4108 10.0644 62.7707 10.064 60.7468C10.0636 58.723 11.5643 57.0818 13.416 57.0812C15.2676 57.0806 16.769 58.7208 16.7694 60.7446Z" fill="#07AE9A"/>
<path fill-rule="evenodd" clip-rule="evenodd" d="M55.5826 71.2142C60.8734 71.2125 65.1616 66.5233 65.1605 60.7408C65.1593 54.9583 60.8693 50.272 55.5785 50.2738C50.2877 50.2755 45.9995 54.9647 46.0006 60.7472C46.0018 66.5297 50.2918 71.216 55.5826 71.2142ZM55.5835 75.4023C62.9907 75.3999 68.9941 68.8352 68.9925 60.7396C68.9909 52.644 62.9849 46.0832 55.5777 46.0857C48.1705 46.0881 42.1671 52.6529 42.1687 60.7484C42.1703 68.844 48.1763 75.4048 55.5835 75.4023Z" fill="#07AE9A"/>
<path d="M58.9332 60.7428C58.9336 62.7666 57.4329 64.4078 55.5812 64.4084C53.7296 64.409 52.2282 62.7688 52.2278 60.745C52.2274 58.7211 53.7281 57.08 55.5798 57.0794C57.4314 57.0787 58.9328 58.7189 58.9332 60.7428Z" fill="#07AE9A"/>
<path fill-rule="evenodd" clip-rule="evenodd" d="M55.5851 25.133C60.8759 25.1313 65.1641 20.4421 65.1629 14.6596C65.1618 8.8771 60.8717 4.1908 55.5809 4.19256C50.2901 4.19432 46.0019 8.88348 46.0031 14.666C46.0042 20.4485 50.2943 25.1348 55.5851 25.133ZM55.5859 29.3211C62.9931 29.3186 68.9965 22.7539 68.9949 14.6583C68.9933 6.56276 62.9873 0.00199844 55.5801 0.004464C48.1729 0.00692957 42.1695 6.57169 42.1711 14.6673C42.1727 22.7628 48.1787 29.3236 55.5859 29.3211Z" fill="#07AE9A"/>
<path d="M58.9357 14.6616C58.9361 16.6854 57.4353 18.3266 55.5837 18.3272C53.732 18.3278 52.2306 16.6876 52.2302 14.6638C52.2298 12.6399 53.7306 10.9988 55.5822 10.9982C57.4339 10.9975 58.9353 12.6377 58.9357 14.6616Z" fill="#07AE9A"/>
<path fill-rule="evenodd" clip-rule="evenodd" d="M13.4224 25.1356C18.7132 25.134 23.0013 20.4449 23 14.6624C22.9987 8.87992 18.7085 4.1935 13.4177 4.19511C8.12692 4.19673 3.83885 8.88577 3.84016 14.6683C3.84146 20.4508 8.13164 25.1372 13.4224 25.1356ZM13.4234 29.3237C20.8306 29.3214 26.8338 22.7568 26.832 14.6612C26.8302 6.56569 20.824 0.00475851 13.4168 0.00701909C6.0096 0.00927966 0.0063618 6.57387 0.00818621 14.6694C0.0100106 22.765 6.01621 29.3259 13.4234 29.3237Z" fill="#07AE9A"/>
<path d="M16.7718 14.6635C16.7722 16.6873 15.2715 18.3285 13.4198 18.3291C11.5682 18.3297 10.0668 16.6896 10.0664 14.6657C10.066 12.6418 11.5667 11.0007 13.4184 11.0001C15.2701 10.9995 16.7714 12.6396 16.7718 14.6635Z" fill="#07AE9A"/>
<path d="M13.4285 60.7455L24.3831 37.2374L14.2624 14.6764L34.4971 25.952L54.7272 14.663L44.6155 37.2307L55.5793 60.7316L34.5015 48.5163L13.4285 60.7455Z" fill="#07AE9A"/>
</svg>
