<svg width="35" height="38" viewBox="0 0 35 38" fill="none" xmlns="http://www.w3.org/2000/svg">
<path fill-rule="evenodd" clip-rule="evenodd" d="M6.7626 35.8874C9.42855 35.8866 11.5891 33.5237 11.5883 30.6099C11.5875 27.696 9.42561 25.3344 6.75967 25.3353C4.09372 25.3361 1.93316 27.6989 1.93397 30.6128C1.93478 33.5267 4.09666 35.8882 6.7626 35.8874ZM6.76319 37.9978C10.4956 37.9967 13.5203 34.6887 13.5192 30.6093C13.518 26.5298 10.4914 23.2237 6.75908 23.2248C3.02673 23.226 0.00197228 26.5339 0.00310645 30.6134C0.00424062 34.6928 3.03084 37.999 6.76319 37.9978Z" fill="#07AE9A"/>
<path d="M8.45053 30.6105C8.45078 31.6304 7.69456 32.4574 6.76147 32.4577C5.82838 32.458 5.07176 31.6315 5.07152 30.6116C5.07127 29.5918 5.82749 28.7648 6.76058 28.7644C7.69367 28.7641 8.45029 29.5906 8.45053 30.6105Z" fill="#07AE9A"/>
<path fill-rule="evenodd" clip-rule="evenodd" d="M28.0093 35.8862C30.6752 35.8853 32.8359 33.5224 32.8352 30.6085C32.8345 27.6947 30.6727 25.3332 28.0067 25.3341C25.3408 25.335 23.1801 27.6979 23.1808 30.6118C23.1815 33.5257 25.3433 35.8871 28.0093 35.8862ZM28.0098 37.9967C31.7421 37.9954 34.767 34.6873 34.766 30.6079C34.7651 26.5284 31.7386 23.2224 28.0062 23.2237C24.2739 23.2249 21.249 26.533 21.25 30.6125C21.251 34.6919 24.2774 37.9979 28.0098 37.9967Z" fill="#07AE9A"/>
<path d="M29.6977 30.6096C29.698 31.6294 28.9417 32.4565 28.0086 32.4568C27.0756 32.4571 26.3189 31.6306 26.3187 30.6107C26.3185 29.5909 27.0747 28.7638 28.0078 28.7635C28.9409 28.7632 29.6975 29.5897 29.6977 30.6096Z" fill="#07AE9A"/>
<path fill-rule="evenodd" clip-rule="evenodd" d="M28.0105 12.6649C30.6764 12.664 32.8371 10.3011 32.8364 7.38719C32.8357 4.47332 30.6739 2.11185 28.008 2.11276C25.342 2.11367 23.1814 4.47661 23.1821 7.39048C23.1828 10.3044 25.3446 12.6658 28.0105 12.6649ZM28.011 14.7753C31.7434 14.7741 34.7682 11.466 34.7673 7.38653C34.7663 3.30708 31.7398 0.00105997 28.0074 0.00233323C24.2751 0.00360649 21.2502 3.31169 21.2512 7.39114C21.2522 11.4706 24.2786 14.7766 28.011 14.7753Z" fill="#07AE9A"/>
<path d="M29.6989 7.38827C29.6992 8.40813 28.9429 9.23515 28.0099 9.23546C27.0768 9.23578 26.3201 8.40928 26.3199 7.38941C26.3197 6.36955 27.0759 5.54253 28.009 5.54221C28.9421 5.5419 29.6987 6.3684 29.6989 7.38827Z" fill="#07AE9A"/>
<path fill-rule="evenodd" clip-rule="evenodd" d="M6.76377 12.6663C9.42971 12.6654 11.5903 10.3025 11.5895 7.38867C11.5887 4.4748 9.42689 2.11327 6.76094 2.11411C4.095 2.11494 1.93441 4.47783 1.93519 7.39169C1.93597 10.3056 4.09782 12.6671 6.76377 12.6663ZM6.76433 14.7767C10.4967 14.7755 13.5215 11.4675 13.5204 7.38806C13.5193 3.30861 10.4927 0.00250997 6.76038 0.00367993C3.02803 0.0048499 0.00323506 3.31285 0.00432701 7.3923C0.00541897 11.4718 3.03198 14.7779 6.76433 14.7767Z" fill="#07AE9A"/>
<path d="M8.45174 7.38924C8.45198 8.40911 7.69577 9.23612 6.76267 9.23644C5.82958 9.23676 5.07297 8.41025 5.07272 7.39039C5.07248 6.37052 5.8287 5.54351 6.76179 5.54319C7.69488 5.54287 8.45149 6.36938 8.45174 7.38924Z" fill="#07AE9A"/>
<path d="M6.76789 30.6108L12.2873 18.7647L7.1871 7.39597L17.3834 13.0778L27.577 7.38906L22.4823 18.7613L28.0074 30.6036L17.3862 24.4483L6.76789 30.6108Z" fill="#07AE9A"/>
</svg>
