<svg width="947" height="79" viewBox="0 0 947 79" fill="none" xmlns="http://www.w3.org/2000/svg">
<g filter="url(#filter0_d_107_1308)">
<path d="M4.72559 16.1527C4.72559 10.6299 9.20274 6.15271 14.7256 6.15271H920.177C925.7 6.15271 930.177 10.6299 930.177 16.1527V55C930.177 60.5228 925.7 65 920.177 65H14.7256C9.20275 65 4.72559 60.5228 4.72559 55V16.1527Z" fill="white"/>
<path d="M14.7256 6.65271H920.177C925.424 6.65271 929.677 10.906 929.677 16.1527V55C929.677 60.2467 925.424 64.5 920.177 64.5H14.7256C9.47889 64.5 5.22559 60.2467 5.22559 55V16.1527C5.22559 10.906 9.47888 6.65271 14.7256 6.65271Z" stroke="black"/>
</g>
<path d="M864.722 25.8735L881.907 46.817L897.696 25.8735" stroke="black" stroke-opacity="0.5" stroke-width="5"/>
<defs>
<filter id="filter0_d_107_1308" x="0.725586" y="0.15271" width="945.451" height="78.8473" filterUnits="userSpaceOnUse" color-interpolation-filters="sRGB">
<feFlood flood-opacity="0" result="BackgroundImageFix"/>
<feColorMatrix in="SourceAlpha" type="matrix" values="0 0 0 0 0 0 0 0 0 0 0 0 0 0 0 0 0 0 127 0" result="hardAlpha"/>
<feOffset dx="6" dy="4"/>
<feGaussianBlur stdDeviation="5"/>
<feComposite in2="hardAlpha" operator="out"/>
<feColorMatrix type="matrix" values="0 0 0 0 0 0 0 0 0 0 0 0 0 0 0 0 0 0 0.25 0"/>
<feBlend mode="normal" in2="BackgroundImageFix" result="effect1_dropShadow_107_1308"/>
<feBlend mode="normal" in="SourceGraphic" in2="effect1_dropShadow_107_1308" result="shape"/>
</filter>
</defs>
</svg>
