<svg width="69" height="76" viewBox="0 0 69 76" fill="none" xmlns="http://www.w3.org/2000/svg">
<path fill-rule="evenodd" clip-rule="evenodd" d="M13.4206 71.2163C18.711 71.2147 22.9983 66.5257 22.9966 60.7433C22.9948 54.9609 18.7046 50.2746 13.4142 50.2763C8.12381 50.2779 3.83643 54.9669 3.83818 60.7493C3.83994 66.5317 8.13016 71.218 13.4206 71.2163ZM13.4218 75.4043C20.8285 75.402 26.8307 68.8375 26.8283 60.7421C26.8258 52.6467 20.8196 46.0859 13.4129 46.0883C6.00632 46.0906 0.00404969 52.6551 0.00650419 60.7505C0.00895869 68.8459 6.01521 75.4067 13.4218 75.4043Z" fill="#07AE9A"/>
<path d="M16.7696 60.7446C16.7701 62.7685 15.2695 64.4097 13.4178 64.4103C11.5662 64.411 10.0647 62.7708 10.0641 60.747C10.0636 58.7231 11.5642 57.0819 13.4159 57.0813C15.2675 57.0806 16.769 58.7208 16.7696 60.7446Z" fill="#07AE9A"/>
<path fill-rule="evenodd" clip-rule="evenodd" d="M55.5832 71.214C60.8736 71.2122 65.1612 66.523 65.1596 60.7406C65.1581 54.9583 60.8681 50.2721 55.5777 50.274C50.2873 50.2758 45.9997 54.9649 46.0012 60.7473C46.0028 66.5297 50.2928 71.2159 55.5832 71.214ZM55.5843 75.402C62.991 75.3994 68.9935 68.8347 68.9913 60.7393C68.9892 52.6439 62.9832 46.0834 55.5766 46.0859C48.1699 46.0885 42.1674 52.6532 42.1696 60.7487C42.1717 68.8441 48.1777 75.4046 55.5843 75.402Z" fill="#07AE9A"/>
<path d="M58.9333 60.7428C58.9338 62.7666 57.4332 64.4078 55.5815 64.4084C53.7299 64.4091 52.2284 62.769 52.2278 60.7451C52.2273 58.7213 53.7279 57.0801 55.5796 57.0794C57.4312 57.0788 58.9327 58.7189 58.9333 60.7428Z" fill="#07AE9A"/>
<path fill-rule="evenodd" clip-rule="evenodd" d="M55.5857 25.1328C60.8761 25.1309 65.1636 20.4418 65.1621 14.6594C65.1605 8.87701 60.8705 4.19088 55.5801 4.19273C50.2897 4.19459 46.0021 8.88374 46.0037 14.6661C46.0052 20.4485 50.2953 25.1347 55.5857 25.1328ZM55.5868 29.3208C62.9934 29.3182 68.9959 22.7535 68.9937 14.6581C68.9916 6.56265 62.9856 0.00212028 55.579 0.00472097C48.1723 0.00732166 42.1698 6.57207 42.172 14.6675C42.1742 22.7629 48.1801 29.3234 55.5868 29.3208Z" fill="#07AE9A"/>
<path d="M58.9357 14.6615C58.9362 16.6854 57.4356 18.3266 55.5839 18.3272C53.7323 18.3279 52.2308 16.6877 52.2303 14.6639C52.2297 12.64 53.7303 10.9989 55.582 10.9982C57.4337 10.9976 58.9352 12.6377 58.9357 14.6615Z" fill="#07AE9A"/>
<path fill-rule="evenodd" clip-rule="evenodd" d="M13.423 25.1353C18.7134 25.1336 23.0008 20.4446 22.9991 14.6622C22.9974 8.87983 18.7073 4.19357 13.4169 4.19529C8.12648 4.197 3.83905 8.88603 3.84075 14.6684C3.84244 20.4508 8.13261 25.1371 13.423 25.1353ZM13.4242 29.3234C20.8309 29.321 26.8332 22.7564 26.8308 14.661C26.8285 6.56557 20.8223 0.00487843 13.4157 0.00727414C6.00904 0.00966984 0.00669786 6.57425 0.00906858 14.6697C0.0114393 22.7651 6.01762 29.3258 13.4242 29.3234Z" fill="#07AE9A"/>
<path d="M16.772 14.6635C16.7726 16.6873 15.2719 18.3285 13.4203 18.3292C11.5686 18.3298 10.0671 16.6897 10.0666 14.6658C10.0661 12.642 11.5667 11.0008 13.4183 11.0001C15.27 10.9995 16.7715 12.6396 16.772 14.6635Z" fill="#07AE9A"/>
<path d="M13.4316 60.7456L24.384 37.2376L14.2624 14.6772L34.4966 25.9522L54.7249 14.6631L44.6153 37.2305L55.5801 60.7309L34.5026 48.5162L13.4316 60.7456Z" fill="#07AE9A"/>
</svg>
